<?xml version="1.0" encoding="UTF-8" standalone="no"?>
<!DOCTYPE svg PUBLIC "-//W3C//DTD SVG 1.1//EN" "http://www.w3.org/Graphics/SVG/1.1/DTD/svg11.dtd">
<svg width="100%" height="100%" viewBox="0 0 1616 934" version="1.1" xmlns="http://www.w3.org/2000/svg" xmlns:xlink="http://www.w3.org/1999/xlink" xml:space="preserve" xmlns:serif="http://www.serif.com/" style="fill-rule:evenodd;clip-rule:evenodd;stroke-linejoin:round;stroke-miterlimit:2;">
    <g transform="matrix(1,0,0,1,-586.852,-216.475)">
        <g>
            <g transform="matrix(1.18612,0,0,1.18612,50.0001,-2272.45)">
                <path d="M492.269,2101.77L548.286,2101.77L548.286,2354.06L598.894,2354.06L598.894,2410.08L492.269,2410.08L492.269,2101.77Z" style="fill-rule:nonzero;"/>
            </g>
            <g transform="matrix(1.18612,0,0,1.18612,50.0001,-2272.44)">
                <path d="M573.092,2255.73C573.092,2168.76 643.387,2098.37 731.211,2098.37C818.195,2098.37 888.952,2168.74 888.952,2255.73C888.952,2343.13 818.181,2413.47 731.211,2413.47C643.401,2413.47 573.092,2343.54 573.092,2255.73ZM730.833,2154.38C673.634,2154.38 629.109,2199.83 629.109,2258C629.109,2312.17 675.757,2357.83 731.211,2357.83C787.399,2357.83 833.312,2312.56 833.312,2255.73C833.312,2199.56 787.327,2154.38 730.833,2154.38Z" style="fill-rule:nonzero;"/>
            </g>
            <g transform="matrix(1.18612,0,0,1.18612,50.0001,-1584.79)">
                <path d="M452.612,1965.86C452.612,1878.88 522.908,1808.49 610.731,1808.49C697.715,1808.49 768.472,1878.87 768.472,1965.86C768.472,2053.25 697.702,2123.6 610.731,2123.6C522.921,2123.6 452.612,2053.66 452.612,1965.86ZM610.353,1864.51C553.154,1864.51 508.629,1909.96 508.629,1968.12C508.629,2022.29 555.277,2067.96 610.731,2067.96C666.919,2067.96 712.833,2022.69 712.833,1965.86C712.833,1909.68 666.847,1864.51 610.353,1864.51Z" style="fill-rule:nonzero;"/>
            </g>
            <g transform="matrix(1.18612,0,0,1.18612,50.0001,-1584.79)">
                <path d="M776.661,1811.89L832.678,1811.89L832.678,1843.47L859.154,1811.89L932.677,1811.89L856.151,1901.42L930.019,2120.2L870.472,2120.2L832.678,2007.65L832.678,2120.2L776.661,2120.2L776.661,1811.89Z" style="fill-rule:nonzero;"/>
            </g>
        </g>
        <g transform="matrix(1,0,0,1,647.848,-180.364)">
            <g transform="matrix(1.18612,0,0,1.18612,50.0001,-714.32)">
                <path d="M685.839,1476.12C681.79,1479.67 677.742,1483.21 673.693,1486.75C673.693,1485.74 673.693,1485.23 673.187,1484.22C671.668,1478.65 665.089,1477.14 660.028,1479.16C646.363,1483.72 622.577,1512.06 622.577,1526.73C623.083,1529.77 625.107,1532.81 628.65,1533.31C633.205,1534.83 637.254,1531.79 640.796,1529.26C630.674,1541.41 620.552,1554.06 610.937,1566.72C587.15,1597.59 563.869,1628.97 541.601,1661.36C528.949,1679.58 516.802,1697.79 505.162,1716.01C501.619,1721.58 510.223,1726.64 513.766,1721.08C534.516,1688.69 556.278,1656.29 579.052,1624.92C601.827,1593.54 625.613,1563.17 650.412,1533.31C664.077,1516.11 678.248,1499.4 692.924,1483.21C696.973,1478.15 690.9,1471.57 685.839,1476.12ZM634.723,1521.67C635.229,1520.66 635.735,1519.65 636.241,1518.64C640.796,1511.55 645.857,1504.47 651.93,1497.89C654.967,1494.85 658.004,1491.31 662.052,1488.78C661.04,1491.31 661.546,1494.34 663.571,1495.86C655.979,1502.95 647.882,1510.03 639.784,1516.61C638.266,1518.64 636.241,1520.15 634.723,1521.67Z" style="fill:rgb(94,64,191);"/>
            </g>
            <g transform="matrix(1.18612,0,0,1.18612,50.0001,-934.025)">
                <path d="M796.675,1668.95C795.662,1666.92 794.65,1663.88 792.626,1665.4C776.937,1677.04 761.754,1688.68 747.077,1700.83C743.534,1703.87 739.992,1706.9 736.449,1709.94C735.943,1709.94 735.943,1710.45 735.437,1710.45L735.437,1709.94C735.437,1709.94 735.943,1707.41 736.449,1706.4C737.967,1702.85 739.992,1699.31 742.522,1696.27C745.053,1692.23 748.089,1688.68 750.62,1685.14C753.656,1681.09 757.199,1676.54 758.717,1671.98C759.729,1668.95 757.199,1665.4 754.162,1665.91C750.62,1665.91 748.089,1667.43 745.559,1669.45C743.028,1670.97 740.498,1672.49 737.967,1674.51C731.894,1678.06 726.327,1682.61 720.76,1686.66C717.217,1689.7 713.674,1692.73 710.132,1696.27C711.65,1693.24 713.168,1690.2 715.193,1687.16C719.748,1680.59 724.809,1674.51 729.87,1668.44C730.882,1666.41 730.376,1663.38 728.351,1661.86C726.327,1660.34 723.796,1660.34 721.772,1662.37C720.254,1663.38 718.735,1664.9 717.217,1666.41C716.205,1667.43 715.699,1668.95 715.699,1669.96C712.156,1674.51 708.614,1679.07 705.577,1684.13C703.553,1687.67 701.528,1691.21 699.504,1695.26C697.985,1699.31 695.961,1703.87 696.973,1708.42C698.492,1712.47 702.54,1714.49 706.083,1711.96C708.614,1710.95 710.638,1708.93 712.662,1706.9C718.229,1701.84 724.303,1696.78 730.376,1691.72C732.4,1690.2 734.425,1688.68 736.955,1687.16C735.437,1688.68 734.425,1690.71 732.906,1692.23C728.857,1698.81 724.809,1706.4 725.821,1713.99C726.327,1717.53 728.351,1721.07 731.894,1721.58C736.955,1723.1 740.498,1719.05 744.04,1716.01C752.138,1709.43 760.742,1702.35 768.839,1695.77C778.455,1688.18 784.528,1683.12 794.144,1676.03C796.169,1674.51 798.193,1671.48 796.675,1668.95Z" style="fill:rgb(94,64,191);"/>
            </g>
            <g transform="matrix(1.18612,0,0,1.18612,50.0001,-980.248)">
                <path d="M856.748,1700.78C851.471,1707.6 844.438,1712.84 837.247,1717.47C829.191,1722.66 820.744,1727.21 812.444,1731.99C802.336,1737.8 792.275,1743.81 781.784,1748.92C781.173,1749.22 780.558,1749.52 779.941,1749.8C779.385,1750.06 778.826,1750.31 778.263,1750.55C777.926,1750.7 777.584,1750.84 777.244,1750.98C776.935,1751.11 776.621,1751.23 776.309,1751.35C776.03,1751.45 775.745,1751.55 775.463,1751.64C774.931,1751.82 772.309,1752.77 772.382,1751.44C773.31,1750.05 774.228,1748.58 775.418,1747.39C778.433,1742.87 781.775,1738.58 785.034,1734.23C791.912,1725.39 798.719,1716.49 805.278,1707.41C808.379,1703.28 802.02,1698.92 798.193,1700.83C794.615,1702.87 791.235,1705.28 788.071,1707.92C785.693,1709.34 784.546,1711.99 786.047,1714.49C786.359,1714.81 786.539,1715.51 787.059,1715.51C782.991,1720.59 778.919,1725.7 775.418,1731.2C771.876,1735.75 768.333,1740.31 764.79,1744.86C761.968,1749.09 759.18,1754.26 760.236,1759.54C761.312,1762.23 764.153,1764.6 767.15,1764.6C768.484,1764.6 769.88,1764.21 771.166,1763.91C773.939,1763.25 776.668,1762.37 779.292,1761.26C791.218,1756.19 802.435,1749.33 813.677,1742.96C822.959,1737.7 832.314,1732.52 841.301,1726.76C846.178,1723.64 851.895,1720.27 855.382,1715.51C855.803,1714.59 856.176,1713.64 856.504,1712.68C857.655,1709.32 859.083,1704.02 856.748,1700.78ZM828.559,1666.92C829.171,1667.53 830.318,1667.43 831.089,1667.43L834.632,1667.43C835.295,1667.1 836.118,1666.95 836.656,1666.42C837.638,1665.43 838.074,1664.09 838.681,1662.87C838.681,1661.6 838.232,1660.46 837.669,1659.33C837.357,1659.02 836.656,1658.84 836.656,1658.32C835.824,1657.9 835.047,1657.81 834.126,1657.81L830.077,1657.81C829.637,1658.25 828.999,1658.38 828.559,1658.82C827.703,1659.68 826.534,1661.05 826.534,1662.37C826.534,1663.69 826.565,1664.93 827.547,1665.91C827.884,1666.25 828.221,1666.58 828.559,1666.92Z" style="fill:rgb(94,64,191);"/>
            </g>
            <g transform="matrix(1.18612,0,0,1.18612,50.0001,-1132.71)">
                <path d="M1263.77,1716.98C1217.21,1719 1000.63,1732.71 954.071,1736.25C947.998,1736.75 941.419,1737.26 935.346,1737.77C938.382,1733.72 941.419,1729.67 944.961,1725.62C964.193,1699.81 983.931,1674 1003.16,1648.19C1004.68,1646.67 1004.17,1643.63 1002.66,1642.11C1001.14,1640.6 998.608,1640.6 996.583,1641.61C992.029,1643.63 987.98,1645.66 983.425,1647.68C981.4,1649.2 980.388,1652.24 981.907,1654.77C982.413,1655.78 983.425,1656.28 984.437,1656.79C963.687,1684.12 942.937,1711.45 922.187,1738.78C885.748,1741.81 849.309,1745.36 812.87,1749.41C786.553,1752.44 759.729,1755.48 733.412,1759.02C730.882,1759.53 728.351,1761.05 728.351,1764.08C728.351,1766.11 730.882,1769.14 733.412,1768.64C779.973,1763.07 827.041,1757.5 874.108,1752.95C887.772,1751.94 900.931,1750.42 914.089,1749.41C904.98,1761.05 896.376,1772.69 887.772,1784.83C871.577,1806.09 856.394,1827.85 843.236,1851.13C839.693,1857.21 836.15,1863.28 833.114,1869.35C830.077,1875.42 827.041,1881.5 824.51,1888.08C822.486,1893.64 821.98,1901.24 827.041,1905.79C832.101,1910.35 838.681,1907.31 843.742,1903.77C870.565,1883.02 893.845,1863.78 920.669,1842.53C922.693,1841.01 924.211,1835.95 922.187,1834.43C920.163,1831.9 918.644,1831.9 916.62,1833.92C893.845,1851.64 871.071,1869.35 848.803,1887.57C845.766,1889.6 843.236,1891.62 840.705,1893.64C838.681,1895.16 836.656,1897.69 834.126,1898.2L833.62,1898.2C833.114,1897.69 833.114,1897.19 833.114,1896.17C832.608,1893.64 833.62,1891.11 834.632,1889.09C840.199,1876.94 846.272,1865.81 852.852,1854.17C865.504,1832.41 880.181,1811.66 894.858,1790.91C905.486,1776.74 916.62,1762.57 927.248,1748.39C956.602,1745.86 985.955,1743.33 1014.8,1741.81C1041.12,1739.79 1237.46,1728.11 1263.77,1726.59C1269.85,1726.59 1270.35,1716.47 1263.77,1716.98ZM833.114,1898.2L833.62,1898.2L833.114,1898.2Z" style="fill:rgb(94,64,191);"/>
            </g>
            <g transform="matrix(1.18612,0,0,1.18612,50.0001,-943.027)">
                <path d="M980.894,1675.02C978.87,1672.99 976.34,1671.98 974.315,1672.99C960.65,1680.08 947.492,1687.16 934.333,1695.26C927.248,1699.31 922.693,1703.36 916.114,1707.91C913.077,1709.94 910.547,1712.47 907.004,1714.49C904.98,1715.5 903.461,1717.53 900.931,1718.54C901.437,1717.02 901.943,1715.5 902.449,1713.48C904.474,1709.43 906.498,1705.38 908.522,1701.33C909.028,1701.33 909.028,1701.33 908.522,1700.83C910.547,1702.35 913.077,1702.35 915.102,1701.84C920.669,1698.8 924.717,1695.26 929.778,1690.71C933.321,1687.16 940.913,1680.58 935.346,1673.5C926.236,1660.85 907.004,1681.09 902.955,1686.15C896.376,1695.26 890.809,1706.9 890.303,1719.05C891.315,1723.1 893.339,1726.64 896.882,1728.66C899.413,1730.18 902.955,1730.18 905.486,1729.17C908.016,1728.16 909.535,1726.13 912.065,1724.61C912.571,1724.61 912.065,1724.11 912.571,1724.11C919.656,1718.54 926.236,1713.48 934.333,1708.42C949.01,1698.3 963.687,1690.71 979.882,1682.1C981.907,1681.09 982.413,1677.55 980.894,1675.02ZM924.211,1681.09C929.778,1677.55 918.644,1691.21 915.608,1690.71C915.608,1690.71 920.669,1684.63 924.211,1681.09Z" style="fill:rgb(94,64,191);"/>
            </g>
            <g transform="matrix(1.18612,0,0,1.18612,50.0001,-940.631)">
                <path d="M1045.67,1672.49C1043.14,1669.96 1040.61,1669.96 1038.59,1670.97C1023.41,1678.56 1008.22,1686.66 994.053,1695.77C986.968,1699.82 980.894,1704.38 973.303,1708.93C969.76,1710.95 967.23,1713.48 963.687,1715C961.663,1715.51 960.144,1716.52 957.614,1717.03C957.614,1716.02 958.12,1715 958.626,1714.5C959.638,1711.97 960.144,1709.94 961.663,1707.41C964.193,1702.86 966.724,1698.81 969.254,1694.76C971.785,1691.72 973.809,1689.19 975.833,1686.66C978.364,1689.19 982.413,1691.22 983.425,1688.18C986.968,1683.63 990.004,1678.06 990.004,1671.48C991.016,1667.43 984.943,1661.86 982.413,1664.9C973.303,1671.48 966.218,1679.07 959.638,1688.18C956.602,1692.23 954.071,1696.78 951.541,1701.84C950.528,1704.38 949.01,1706.91 947.998,1709.44C947.492,1711.97 945.974,1714.5 945.974,1717.53C945.974,1721.08 948.504,1725.13 952.553,1726.14C956.602,1727.15 959.638,1726.64 962.675,1726.14C968.748,1725.13 974.315,1722.09 978.87,1719.05C988.992,1712.47 999.114,1705.89 1009.74,1699.82C1021.38,1692.73 1031,1686.66 1044.16,1680.59C1046.18,1679.58 1047.7,1675.02 1045.67,1672.49Z" style="fill:rgb(94,64,191);"/>
            </g>
            <g transform="matrix(1.18612,0,0,1.18612,50.0001,-1128.06)">
                <path d="M1113.49,1744.47C1114.9,1742.6 1118.7,1737.71 1121.59,1733.85C1124.63,1729.8 1127.66,1725.75 1131.21,1721.7C1143.48,1705.22 1152.19,1693.16 1161.89,1679.87C1165.81,1674.49 1169.89,1668.92 1174.44,1662.77C1176.26,1660.31 1180.21,1658.58 1181.67,1656.98C1183.08,1655.43 1182.87,1652.47 1181.35,1650.96C1179.83,1649.44 1176.8,1649.4 1174.71,1650.26C1171.85,1651.45 1170.51,1652.15 1167.53,1653.51C1165.17,1654.58 1161.84,1656.84 1161.81,1659.59C1161.8,1660.72 1161.95,1663 1161.42,1663.69C1157.02,1669.49 1153.03,1674.8 1149.28,1679.84C1135.38,1698.51 1124.78,1713.33 1108.43,1734.86C1106,1738.07 1102.06,1743.28 1100.33,1745.49C1091.22,1757.13 1082.62,1768.77 1074.02,1780.91C1057.82,1802.17 1045.47,1819.59 1034.48,1838.42C1030.94,1844.49 1027.4,1850.56 1024.36,1856.64C1021.33,1862.71 1018.29,1868.78 1015.76,1875.36C1013.73,1880.93 1013.23,1888.52 1018.29,1893.07C1023.35,1897.63 1029.93,1894.59 1034.99,1891.05C1061.81,1870.3 1080.09,1859.86 1106.91,1838.61C1108.94,1837.09 1110.46,1832.03 1108.43,1830.51C1106.41,1827.98 1104.89,1827.98 1102.86,1830C1080.09,1847.72 1062.32,1856.64 1040.05,1874.85C1037.01,1876.88 1034.48,1878.9 1031.95,1880.93C1029.93,1882.45 1027.91,1884.98 1025.37,1885.48L1024.87,1885.48C1024.36,1884.98 1024.36,1884.47 1024.36,1883.46C1023.86,1880.93 1024.87,1878.4 1025.88,1876.37C1031.45,1864.23 1037.52,1853.09 1044.1,1841.45C1052.97,1825.76 1066.43,1807.74 1081.1,1786.99C1091.73,1772.82 1102.86,1758.65 1113.49,1744.47ZM1024.36,1885.48L1024.87,1885.48L1024.36,1885.48Z" style="fill:rgb(94,64,191);"/>
            </g>
            <g transform="matrix(1.18612,0,0,1.18612,50.0001,-933.42)">
                <path d="M1176.25,1668.44C1175.24,1665.4 1174.22,1663.88 1171.69,1664.39C1159.55,1666.41 1147.91,1667.93 1136.27,1669.95C1132.72,1670.46 1129.69,1670.46 1126.65,1670.97C1126.14,1669.95 1126.14,1669.45 1125.64,1668.44C1123.61,1665.4 1120.07,1664.39 1116.53,1664.39C1116.02,1664.39 1115.01,1664.39 1114.5,1664.89C1113.49,1661.35 1109.44,1659.33 1106.41,1662.36C1097.8,1671.47 1088.69,1680.58 1081.61,1690.7C1078.07,1695.76 1074.52,1700.83 1071.99,1706.39C1070.98,1708.92 1069.46,1711.96 1069.46,1714.49C1069.97,1718.54 1072.5,1721.58 1076.04,1722.08C1081.61,1723.6 1088.69,1720.06 1093.25,1717.53C1098.31,1715 1102.86,1711.45 1106.91,1707.91C1115.01,1700.32 1120.58,1691.21 1124.12,1681.09C1127.66,1681.09 1130.7,1680.58 1133.74,1680.08C1147.4,1678.05 1159.04,1676.03 1172.71,1674C1175.24,1673.5 1176.75,1670.46 1176.25,1668.44ZM1100.33,1700.83C1097.3,1703.36 1093.75,1705.89 1090.21,1707.91C1088.69,1708.92 1087.18,1709.94 1085.15,1710.44C1083.63,1711.45 1082.11,1711.45 1080.6,1711.96C1081.61,1709.94 1082.62,1707.91 1083.63,1705.38C1086.16,1701.33 1088.69,1697.28 1091.73,1693.74C1094.26,1689.69 1097.8,1686.15 1100.84,1682.61C1104.38,1684.12 1108.94,1683.11 1112.99,1682.61C1109.95,1689.69 1105.39,1695.76 1100.33,1700.83Z" style="fill:rgb(94,64,191);"/>
            </g>
            <g transform="matrix(1.18612,0,0,1.18612,50.0001,-922.614)">
                <path d="M1243.05,1658.31C1241.03,1655.78 1240.02,1654.26 1237.99,1656.29C1224.33,1666.41 1210.66,1677.54 1195.99,1685.64C1192.95,1687.16 1190.42,1688.68 1187.38,1689.69C1187.38,1687.16 1187.38,1684.12 1186.88,1681.09C1185.86,1677.04 1184.85,1673.5 1183.33,1669.95C1182.83,1667.42 1181.82,1664.89 1181.31,1662.36C1182.83,1665.4 1186.37,1666.92 1189.41,1663.88C1195.99,1657.81 1189.41,1646.17 1180.8,1648.19C1172.2,1650.22 1170.68,1659.33 1172.2,1666.41C1173.72,1673.5 1177.26,1680.08 1177.77,1687.16C1177.77,1689.69 1177.26,1691.72 1177.26,1694.25C1175.74,1694.75 1174.22,1695.26 1172.71,1695.76C1165.11,1698.8 1157.02,1701.33 1149.43,1705.38C1143.86,1707.91 1137.28,1713.48 1139.81,1720.06C1142.85,1727.65 1151.45,1727.65 1158.03,1725.62C1170.68,1722.59 1181.31,1713.98 1185.36,1701.33C1189.41,1699.81 1192.95,1698.29 1197,1696.27C1214.21,1687.16 1224.33,1678.56 1239.51,1666.41C1242.04,1664.89 1245.08,1659.83 1243.05,1658.31ZM1154.49,1716.51C1153.47,1716.51 1152.46,1717.02 1151.45,1717.02L1149.43,1717.02C1149.93,1716.51 1150.94,1715.5 1151.96,1715C1157.52,1711.45 1164.61,1709.43 1171.19,1706.9C1166.63,1711.96 1161.07,1715 1154.49,1716.51Z" style="fill:rgb(94,64,191);"/>
            </g>
            <g transform="matrix(1.18612,0,0,1.18612,50.0001,-943.917)">
                <path d="M573.528,1677.48C571.548,1675.39 569.084,1671.05 570.38,1666.57C571.335,1663.27 575.402,1656.65 580.172,1654.67C585.993,1652.24 592.014,1653.3 594.798,1656.14C597.858,1659.27 597.222,1663.83 594.742,1667.92C598.176,1666.79 602.575,1666.26 605.625,1665.4C609.89,1664.2 613.337,1664 614.793,1664.22C618.798,1664.82 620.914,1668.74 618.998,1672.09C612.726,1683.07 604.331,1692.73 596.324,1702.59C591.408,1708.64 586.638,1714.77 582.595,1721.32L582.089,1722.83L588.162,1718.28C590.186,1716.25 592.717,1714.74 594.741,1712.71C601.321,1708.16 607.9,1703.1 614.985,1698.54C628.65,1689.94 643.327,1681.84 657.498,1673.74C663.065,1670.71 664.077,1681.33 659.016,1684.37C642.315,1693.48 629.662,1701.07 613.973,1712.21C605.876,1717.27 598.284,1723.34 590.693,1729.41C588.668,1730.93 586.138,1732.96 583.607,1734.47C579.558,1737.51 574.497,1739.54 569.943,1735.99C567.412,1734.47 566.4,1731.94 567.412,1729.41C571.836,1717.99 578.604,1708.38 585.976,1699.21C594.16,1689.02 606.911,1675.99 601.339,1677.26C595.756,1678.54 591.162,1680.56 586.078,1681.47C585.318,1681.6 584.549,1681.53 583.805,1681.5C574.086,1689.88 510.864,1732.66 501.619,1730.43C499.111,1729.82 496.052,1726.88 495.546,1724.35C495.04,1722.83 495.546,1721.82 496.052,1720.81L496.558,1720.3C496.558,1719.8 497.064,1719.8 497.064,1719.29C501.113,1712.21 505.162,1705.12 510.223,1698.04C510.223,1697.53 510.729,1697.53 509.717,1697.02C508.199,1699.05 505.722,1700.64 503.644,1702.08C497.865,1706.1 490.805,1712.63 483.447,1718.96C480.147,1721.8 471.587,1728.38 468.045,1729.39C463.996,1730.4 458.935,1729.39 456.911,1724.84C455.392,1719.77 457.046,1714.82 459.354,1711.04C469.296,1694.76 491.502,1674.86 510.223,1664.63C513.202,1663 517.814,1665.14 517.814,1669.19C517.814,1671.84 517.814,1677.79 517.308,1678.3C519.333,1676.78 521.357,1674.75 524.394,1673.74C528.949,1672.22 531.985,1677.29 530.973,1680.83C527.936,1688.93 522.875,1695.5 518.827,1703.1C516.296,1706.13 514.758,1709.31 512.753,1712.71C507.282,1722.01 557,1689.98 573.528,1677.48ZM505.162,1687.91C508.199,1685.38 511.741,1682.85 515.284,1680.32L515.79,1679.82C515.284,1680.32 514.778,1680.32 514.272,1680.32C512.247,1680.32 511.15,1678.89 509.631,1677.37C506.509,1677.9 497.576,1685.35 489.206,1693.41C480.172,1702.11 471.304,1712.01 469.563,1716.23C473.219,1715.59 495.115,1694.83 505.162,1687.91ZM581.432,1670.98C584.774,1668.47 585.922,1667.79 586.628,1665.92C587.26,1664.24 585.968,1662.33 584.701,1662.77C582.254,1663.64 580.369,1665.81 579.852,1667.96C579.465,1669.57 580.204,1670.5 581.432,1670.98Z" style="fill:rgb(94,64,191);"/>
            </g>
        </g>
    </g>
</svg>
