<?xml version="1.0" encoding="UTF-8" standalone="no"?>
<!DOCTYPE svg PUBLIC "-//W3C//DTD SVG 1.1//EN" "http://www.w3.org/Graphics/SVG/1.1/DTD/svg11.dtd">
<svg width="100%" height="100%" viewBox="0 0 2600 1544" version="1.1" xmlns="http://www.w3.org/2000/svg" xmlns:xlink="http://www.w3.org/1999/xlink" xml:space="preserve" xmlns:serif="http://www.serif.com/" style="fill-rule:evenodd;clip-rule:evenodd;stroke-linejoin:round;stroke-miterlimit:2;">
    <g transform="matrix(1,0,0,1,-18.4187,-614.491)">
        <g id="LENTES" transform="matrix(0.608999,2.27282,-2.27282,0.608999,1685.17,-613.14)">
            <g transform="matrix(1.10817,-0.42289,-0.42289,-1.10817,941.033,3347.71)">
                <path d="M492.269,2101.77L548.286,2101.77L548.286,2427.44L598.894,2427.44L598.894,2483.46L492.269,2483.46L492.269,2101.77Z" style="fill-rule:nonzero;"/>
            </g>
            <g transform="matrix(1.10817,-0.42289,-0.42289,-1.10817,1174.68,2785.69)">
                <path d="M492.269,2101.77L548.286,2101.77L548.286,2407.04L598.894,2407.04L598.894,2463.06L492.269,2463.06L492.269,2101.77Z" style="fill-rule:nonzero;"/>
            </g>
            <g transform="matrix(1.18612,0,0,1.18612,50.0001,-2272.44)">
                <path d="M573.092,2255.73C573.092,2168.76 643.387,2098.37 731.211,2098.37C818.195,2098.37 888.952,2168.74 888.952,2255.73C888.952,2343.13 818.181,2413.47 731.211,2413.47C643.401,2413.47 573.092,2343.54 573.092,2255.73ZM730.833,2154.38C673.634,2154.38 629.109,2199.83 629.109,2258C629.109,2312.17 675.757,2357.83 731.211,2357.83C787.399,2357.83 833.312,2312.56 833.312,2255.73C833.312,2199.56 787.327,2154.38 730.833,2154.38Z" style="fill-rule:nonzero;"/>
            </g>
            <g transform="matrix(1.18612,0,0,1.18612,50.0001,-1584.79)">
                <path d="M452.612,1965.86C452.612,1878.88 522.908,1808.49 610.731,1808.49C697.715,1808.49 768.472,1878.87 768.472,1965.86C768.472,2053.25 697.702,2123.6 610.731,2123.6C522.921,2123.6 452.612,2053.66 452.612,1965.86ZM610.353,1864.51C553.154,1864.51 508.629,1909.96 508.629,1968.12C508.629,2022.29 555.277,2067.96 610.731,2067.96C666.919,2067.96 712.833,2022.69 712.833,1965.86C712.833,1909.68 666.847,1864.51 610.353,1864.51Z" style="fill-rule:nonzero;"/>
            </g>
            <g transform="matrix(0.109462,-0.408519,0.408519,0.109462,65.7829,758.969)">
                <circle cx="460.111" cy="1612.19" r="285.238" style="fill:white;fill-opacity:0.4;"/>
            </g>
            <g transform="matrix(0.109462,-0.408519,0.408519,0.109462,207.395,414.702)">
                <circle cx="460.111" cy="1612.19" r="285.238" style="fill:white;fill-opacity:0.4;"/>
            </g>
        </g>
    </g>
</svg>
