<?xml version="1.0" encoding="UTF-8" standalone="no"?>
<!DOCTYPE svg PUBLIC "-//W3C//DTD SVG 1.1//EN" "http://www.w3.org/Graphics/SVG/1.1/DTD/svg11.dtd">
<svg width="100%" height="100%" viewBox="0 0 605 136" version="1.1" xmlns="http://www.w3.org/2000/svg" xmlns:xlink="http://www.w3.org/1999/xlink" xml:space="preserve" xmlns:serif="http://www.serif.com/" style="fill-rule:evenodd;clip-rule:evenodd;">
    <path d="M605,24C605,10.754 594.246,0 581,0L24,0C10.754,0 0,10.754 0,24L0,111.939C0,125.185 10.754,135.939 24,135.939L581,135.939C594.246,135.939 605,125.185 605,111.939L605,24Z" style="fill:url(#_Linear1);"/>
    <path d="M103.935,53.581C103.935,41.672 94.267,32.004 82.359,32.004L53.581,32.004C41.672,32.004 32.004,41.672 32.004,53.581L32.004,82.359C32.004,94.267 41.672,103.935 53.581,103.935L82.359,103.935C94.267,103.935 103.935,94.267 103.935,82.359L103.935,53.581Z" style="fill:rgb(161,187,42);"/>
    <path d="M80.449,57.071L84.263,60.886L64.373,80.776L53.474,69.877L57.289,66.062L63.102,71.875C63.804,72.577 64.942,72.577 65.645,71.875L80.449,57.071Z" style="fill:rgb(11,13,1);"/>
    <g transform="matrix(1,0,0,1,-17.6528,36.4385)">
        <g transform="matrix(40,0,0,40,146.325,46.3718)">
            <path d="M0.726,-0.06L0.635,-0.06L0.522,-0.305L0.22,-0.305L0.108,-0.06L0.013,-0.06L0.359,-0.821L0.385,-0.821L0.726,-0.06ZM0.483,-0.392L0.372,-0.639L0.26,-0.392L0.483,-0.392Z" style="fill:white;fill-rule:nonzero;"/>
        </g>
        <g transform="matrix(40,0,0,40,175.925,46.3718)">
            <path d="M0.547,-0.06L0.465,-0.06L0.465,-0.32C0.465,-0.38 0.462,-0.421 0.457,-0.443C0.451,-0.464 0.443,-0.483 0.432,-0.498C0.421,-0.513 0.407,-0.524 0.39,-0.531C0.373,-0.538 0.352,-0.542 0.328,-0.542C0.303,-0.542 0.279,-0.536 0.256,-0.524C0.233,-0.512 0.213,-0.495 0.196,-0.474C0.179,-0.453 0.168,-0.43 0.162,-0.406C0.155,-0.382 0.152,-0.334 0.152,-0.262L0.152,-0.06L0.069,-0.06L0.069,-0.605L0.152,-0.605L0.152,-0.523C0.206,-0.587 0.27,-0.619 0.344,-0.619C0.383,-0.619 0.419,-0.609 0.451,-0.589C0.483,-0.568 0.507,-0.54 0.523,-0.505C0.539,-0.469 0.547,-0.414 0.547,-0.34L0.547,-0.06Z" style="fill:white;fill-rule:nonzero;"/>
        </g>
        <g transform="matrix(40,0,0,40,199.925,46.3718)">
            <path d="M0.408,-0.797L0.532,-0.797L0.37,-0.663L0.283,-0.663L0.408,-0.797ZM0.612,-0.06L0.531,-0.06L0.531,-0.14C0.472,-0.075 0.403,-0.042 0.326,-0.042C0.249,-0.042 0.183,-0.071 0.128,-0.128C0.073,-0.185 0.045,-0.253 0.045,-0.332C0.045,-0.411 0.073,-0.478 0.128,-0.535C0.183,-0.591 0.251,-0.619 0.331,-0.619C0.41,-0.619 0.477,-0.587 0.531,-0.522L0.531,-0.605L0.612,-0.605L0.612,-0.06ZM0.332,-0.119C0.387,-0.119 0.435,-0.139 0.475,-0.179C0.515,-0.219 0.535,-0.269 0.535,-0.329C0.535,-0.388 0.515,-0.438 0.476,-0.479C0.437,-0.519 0.389,-0.539 0.332,-0.539C0.275,-0.539 0.226,-0.518 0.187,-0.477C0.148,-0.435 0.128,-0.386 0.128,-0.329C0.128,-0.272 0.148,-0.223 0.188,-0.182C0.228,-0.14 0.276,-0.119 0.332,-0.119Z" style="fill:white;fill-rule:nonzero;"/>
        </g>
        <g transform="matrix(40,0,0,40,228.045,46.3718)">
            <rect x="0.059" y="-0.81" width="0.082" height="0.75" style="fill:white;fill-rule:nonzero;"/>
        </g>
        <g transform="matrix(40,0,0,40,238.045,46.3718)">
            <path d="M0.1,-0.81C0.118,-0.81 0.133,-0.804 0.146,-0.792C0.158,-0.779 0.164,-0.764 0.164,-0.747C0.164,-0.729 0.158,-0.714 0.146,-0.702C0.133,-0.689 0.118,-0.683 0.101,-0.683C0.083,-0.683 0.068,-0.689 0.056,-0.702C0.043,-0.715 0.037,-0.729 0.037,-0.747C0.037,-0.764 0.043,-0.778 0.056,-0.791C0.068,-0.804 0.083,-0.81 0.1,-0.81ZM0.142,-0.06L0.059,-0.06L0.059,-0.605L0.142,-0.605L0.142,-0.06Z" style="fill:white;fill-rule:nonzero;"/>
        </g>
        <g transform="matrix(40,0,0,40,247.245,46.3718)">
            <path d="M0.353,-0.541L0.3,-0.486C0.261,-0.523 0.225,-0.541 0.192,-0.541C0.171,-0.541 0.154,-0.535 0.14,-0.522C0.126,-0.509 0.119,-0.493 0.119,-0.474C0.119,-0.455 0.127,-0.438 0.143,-0.424C0.158,-0.409 0.186,-0.392 0.226,-0.371C0.266,-0.349 0.297,-0.326 0.319,-0.301C0.34,-0.276 0.351,-0.245 0.351,-0.208C0.351,-0.161 0.335,-0.122 0.303,-0.09C0.27,-0.058 0.23,-0.042 0.183,-0.042C0.117,-0.042 0.062,-0.07 0.018,-0.126L0.07,-0.184C0.106,-0.142 0.143,-0.121 0.18,-0.121C0.205,-0.121 0.227,-0.129 0.245,-0.146C0.263,-0.163 0.272,-0.182 0.272,-0.205C0.272,-0.227 0.264,-0.246 0.248,-0.261C0.231,-0.276 0.203,-0.293 0.164,-0.313C0.124,-0.333 0.094,-0.355 0.074,-0.38C0.053,-0.404 0.043,-0.436 0.043,-0.476C0.043,-0.515 0.058,-0.549 0.087,-0.577C0.116,-0.605 0.154,-0.619 0.202,-0.619C0.249,-0.619 0.3,-0.593 0.353,-0.541Z" style="fill:white;fill-rule:nonzero;"/>
        </g>
        <g transform="matrix(40,0,0,40,263.165,46.3718)">
            <path d="M0.1,-0.81C0.118,-0.81 0.133,-0.804 0.146,-0.792C0.158,-0.779 0.164,-0.764 0.164,-0.747C0.164,-0.729 0.158,-0.714 0.146,-0.702C0.133,-0.689 0.118,-0.683 0.101,-0.683C0.083,-0.683 0.068,-0.689 0.056,-0.702C0.043,-0.715 0.037,-0.729 0.037,-0.747C0.037,-0.764 0.043,-0.778 0.056,-0.791C0.068,-0.804 0.083,-0.81 0.1,-0.81ZM0.142,-0.06L0.059,-0.06L0.059,-0.605L0.142,-0.605L0.142,-0.06Z" style="fill:white;fill-rule:nonzero;"/>
        </g>
        <g transform="matrix(40,0,0,40,271.965,46.3718)">
            <path d="M0.353,-0.541L0.3,-0.486C0.261,-0.523 0.225,-0.541 0.192,-0.541C0.171,-0.541 0.154,-0.535 0.14,-0.522C0.126,-0.509 0.119,-0.493 0.119,-0.474C0.119,-0.455 0.127,-0.438 0.143,-0.424C0.158,-0.409 0.186,-0.392 0.226,-0.371C0.266,-0.349 0.297,-0.326 0.319,-0.301C0.34,-0.276 0.351,-0.245 0.351,-0.208C0.351,-0.161 0.335,-0.122 0.303,-0.09C0.27,-0.058 0.23,-0.042 0.183,-0.042C0.117,-0.042 0.062,-0.07 0.018,-0.126L0.07,-0.184C0.106,-0.142 0.143,-0.121 0.18,-0.121C0.205,-0.121 0.227,-0.129 0.245,-0.146C0.263,-0.163 0.272,-0.182 0.272,-0.205C0.272,-0.227 0.264,-0.246 0.248,-0.261C0.231,-0.276 0.203,-0.293 0.164,-0.313C0.124,-0.333 0.094,-0.355 0.074,-0.38C0.053,-0.404 0.043,-0.436 0.043,-0.476C0.043,-0.515 0.058,-0.549 0.087,-0.577C0.116,-0.605 0.154,-0.619 0.202,-0.619C0.249,-0.619 0.3,-0.593 0.353,-0.541Z" style="fill:white;fill-rule:nonzero;"/>
        </g>
        <g transform="matrix(40,0,0,40,297.485,46.3718)">
            <path d="M0.613,-0.06L0.532,-0.06L0.532,-0.14C0.473,-0.075 0.404,-0.042 0.327,-0.042C0.249,-0.042 0.183,-0.07 0.128,-0.127C0.073,-0.184 0.046,-0.252 0.046,-0.331C0.046,-0.41 0.074,-0.478 0.129,-0.535C0.184,-0.591 0.252,-0.619 0.332,-0.619C0.411,-0.619 0.478,-0.587 0.532,-0.522L0.532,-0.81L0.613,-0.81L0.613,-0.06ZM0.333,-0.119C0.386,-0.119 0.433,-0.139 0.474,-0.178C0.515,-0.217 0.536,-0.267 0.536,-0.328C0.536,-0.388 0.517,-0.438 0.479,-0.479C0.44,-0.519 0.392,-0.539 0.334,-0.539C0.275,-0.539 0.227,-0.518 0.188,-0.477C0.149,-0.435 0.129,-0.386 0.129,-0.33C0.129,-0.273 0.149,-0.224 0.189,-0.182C0.229,-0.14 0.277,-0.119 0.333,-0.119Z" style="fill:white;fill-rule:nonzero;"/>
        </g>
        <g transform="matrix(40,0,0,40,324.885,46.3718)">
            <path d="M0.606,-0.318L0.128,-0.318C0.131,-0.258 0.152,-0.21 0.189,-0.174C0.226,-0.137 0.27,-0.119 0.321,-0.119C0.408,-0.119 0.475,-0.162 0.521,-0.248L0.591,-0.212C0.56,-0.154 0.523,-0.111 0.48,-0.084C0.437,-0.056 0.386,-0.042 0.327,-0.042C0.245,-0.042 0.177,-0.07 0.124,-0.127C0.071,-0.183 0.044,-0.251 0.044,-0.33C0.044,-0.409 0.071,-0.477 0.125,-0.534C0.178,-0.591 0.245,-0.619 0.324,-0.619C0.403,-0.619 0.47,-0.592 0.523,-0.539C0.576,-0.485 0.604,-0.411 0.606,-0.318ZM0.514,-0.391C0.504,-0.438 0.481,-0.474 0.446,-0.5C0.411,-0.526 0.37,-0.539 0.324,-0.539C0.231,-0.539 0.169,-0.49 0.138,-0.391L0.514,-0.391Z" style="fill:white;fill-rule:nonzero;"/>
        </g>
        <g transform="matrix(40,0,0,40,360.885,46.3718)">
            <path d="M0.536,-0.605L0.287,-0.042L0.267,-0.042L0.016,-0.605L0.103,-0.605L0.276,-0.211L0.449,-0.605L0.536,-0.605Z" style="fill:white;fill-rule:nonzero;"/>
        </g>
        <g transform="matrix(40,0,0,40,383.045,46.3718)">
            <path d="M0.1,-0.81C0.118,-0.81 0.133,-0.804 0.146,-0.792C0.158,-0.779 0.164,-0.764 0.164,-0.747C0.164,-0.729 0.158,-0.714 0.146,-0.702C0.133,-0.689 0.118,-0.683 0.101,-0.683C0.083,-0.683 0.068,-0.689 0.056,-0.702C0.043,-0.715 0.037,-0.729 0.037,-0.747C0.037,-0.764 0.043,-0.778 0.056,-0.791C0.068,-0.804 0.083,-0.81 0.1,-0.81ZM0.142,-0.06L0.059,-0.06L0.059,-0.605L0.142,-0.605L0.142,-0.06Z" style="fill:white;fill-rule:nonzero;"/>
        </g>
        <g transform="matrix(40,0,0,40,391.045,46.3718)">
            <path d="M0.612,-0.06L0.531,-0.06L0.531,-0.14C0.472,-0.075 0.403,-0.042 0.326,-0.042C0.249,-0.042 0.183,-0.071 0.128,-0.128C0.073,-0.185 0.045,-0.253 0.045,-0.332C0.045,-0.411 0.073,-0.478 0.128,-0.535C0.183,-0.591 0.251,-0.619 0.331,-0.619C0.41,-0.619 0.477,-0.587 0.531,-0.522L0.531,-0.605L0.612,-0.605L0.612,-0.06ZM0.332,-0.119C0.387,-0.119 0.435,-0.139 0.475,-0.179C0.515,-0.219 0.535,-0.269 0.535,-0.329C0.535,-0.388 0.515,-0.438 0.476,-0.479C0.437,-0.519 0.389,-0.539 0.332,-0.539C0.275,-0.539 0.226,-0.518 0.187,-0.477C0.148,-0.435 0.128,-0.386 0.128,-0.329C0.128,-0.272 0.148,-0.223 0.188,-0.182C0.228,-0.14 0.276,-0.119 0.332,-0.119Z" style="fill:white;fill-rule:nonzero;"/>
        </g>
        <g transform="matrix(40,0,0,40,418.365,46.3718)">
            <path d="M0.155,-0.525C0.212,-0.588 0.28,-0.619 0.359,-0.619C0.438,-0.619 0.505,-0.591 0.56,-0.535C0.614,-0.478 0.641,-0.41 0.641,-0.331C0.641,-0.252 0.613,-0.184 0.558,-0.127C0.503,-0.07 0.436,-0.042 0.358,-0.042C0.279,-0.042 0.212,-0.076 0.155,-0.144L0.155,-0.06L0.074,-0.06L0.074,-0.81L0.155,-0.81L0.155,-0.525ZM0.354,-0.122C0.411,-0.122 0.459,-0.143 0.499,-0.185C0.538,-0.227 0.558,-0.276 0.558,-0.333C0.558,-0.389 0.539,-0.438 0.5,-0.48C0.461,-0.522 0.413,-0.543 0.355,-0.543C0.297,-0.543 0.249,-0.523 0.21,-0.484C0.17,-0.445 0.151,-0.395 0.151,-0.336C0.151,-0.276 0.171,-0.225 0.21,-0.184C0.249,-0.143 0.297,-0.122 0.354,-0.122Z" style="fill:white;fill-rule:nonzero;"/>
        </g>
        <g transform="matrix(40,0,0,40,445.645,46.3718)">
            <path d="M0.1,-0.81C0.118,-0.81 0.133,-0.804 0.146,-0.792C0.158,-0.779 0.164,-0.764 0.164,-0.747C0.164,-0.729 0.158,-0.714 0.146,-0.702C0.133,-0.689 0.118,-0.683 0.101,-0.683C0.083,-0.683 0.068,-0.689 0.056,-0.702C0.043,-0.715 0.037,-0.729 0.037,-0.747C0.037,-0.764 0.043,-0.778 0.056,-0.791C0.068,-0.804 0.083,-0.81 0.1,-0.81ZM0.142,-0.06L0.059,-0.06L0.059,-0.605L0.142,-0.605L0.142,-0.06Z" style="fill:white;fill-rule:nonzero;"/>
        </g>
        <g transform="matrix(40,0,0,40,454.845,46.3718)">
            <rect x="0.059" y="-0.81" width="0.082" height="0.75" style="fill:white;fill-rule:nonzero;"/>
        </g>
        <g transform="matrix(40,0,0,40,464.445,46.3718)">
            <path d="M0.1,-0.81C0.118,-0.81 0.133,-0.804 0.146,-0.792C0.158,-0.779 0.164,-0.764 0.164,-0.747C0.164,-0.729 0.158,-0.714 0.146,-0.702C0.133,-0.689 0.118,-0.683 0.101,-0.683C0.083,-0.683 0.068,-0.689 0.056,-0.702C0.043,-0.715 0.037,-0.729 0.037,-0.747C0.037,-0.764 0.043,-0.778 0.056,-0.791C0.068,-0.804 0.083,-0.81 0.1,-0.81ZM0.142,-0.06L0.059,-0.06L0.059,-0.605L0.142,-0.605L0.142,-0.06Z" style="fill:white;fill-rule:nonzero;"/>
        </g>
        <g transform="matrix(40,0,0,40,473.245,46.3718)">
            <path d="M0.613,-0.06L0.532,-0.06L0.532,-0.14C0.473,-0.075 0.404,-0.042 0.327,-0.042C0.249,-0.042 0.183,-0.07 0.128,-0.127C0.073,-0.184 0.046,-0.252 0.046,-0.331C0.046,-0.41 0.074,-0.478 0.129,-0.535C0.184,-0.591 0.252,-0.619 0.332,-0.619C0.411,-0.619 0.478,-0.587 0.532,-0.522L0.532,-0.81L0.613,-0.81L0.613,-0.06ZM0.333,-0.119C0.386,-0.119 0.433,-0.139 0.474,-0.178C0.515,-0.217 0.536,-0.267 0.536,-0.328C0.536,-0.388 0.517,-0.438 0.479,-0.479C0.44,-0.519 0.392,-0.539 0.334,-0.539C0.275,-0.539 0.227,-0.518 0.188,-0.477C0.149,-0.435 0.129,-0.386 0.129,-0.33C0.129,-0.273 0.149,-0.224 0.189,-0.182C0.229,-0.14 0.277,-0.119 0.333,-0.119Z" style="fill:white;fill-rule:nonzero;"/>
        </g>
        <g transform="matrix(40,0,0,40,500.645,46.3718)">
            <path d="M0.612,-0.06L0.531,-0.06L0.531,-0.14C0.472,-0.075 0.403,-0.042 0.326,-0.042C0.249,-0.042 0.183,-0.071 0.128,-0.128C0.073,-0.185 0.045,-0.253 0.045,-0.332C0.045,-0.411 0.073,-0.478 0.128,-0.535C0.183,-0.591 0.251,-0.619 0.331,-0.619C0.41,-0.619 0.477,-0.587 0.531,-0.522L0.531,-0.605L0.612,-0.605L0.612,-0.06ZM0.332,-0.119C0.387,-0.119 0.435,-0.139 0.475,-0.179C0.515,-0.219 0.535,-0.269 0.535,-0.329C0.535,-0.388 0.515,-0.438 0.476,-0.479C0.437,-0.519 0.389,-0.539 0.332,-0.539C0.275,-0.539 0.226,-0.518 0.187,-0.477C0.148,-0.435 0.128,-0.386 0.128,-0.329C0.128,-0.272 0.148,-0.223 0.188,-0.182C0.228,-0.14 0.276,-0.119 0.332,-0.119Z" style="fill:white;fill-rule:nonzero;"/>
        </g>
        <g transform="matrix(40,0,0,40,527.965,46.3718)">
            <path d="M0.613,-0.06L0.532,-0.06L0.532,-0.14C0.473,-0.075 0.404,-0.042 0.327,-0.042C0.249,-0.042 0.183,-0.07 0.128,-0.127C0.073,-0.184 0.046,-0.252 0.046,-0.331C0.046,-0.41 0.074,-0.478 0.129,-0.535C0.184,-0.591 0.252,-0.619 0.332,-0.619C0.411,-0.619 0.478,-0.587 0.532,-0.522L0.532,-0.81L0.613,-0.81L0.613,-0.06ZM0.333,-0.119C0.386,-0.119 0.433,-0.139 0.474,-0.178C0.515,-0.217 0.536,-0.267 0.536,-0.328C0.536,-0.388 0.517,-0.438 0.479,-0.479C0.44,-0.519 0.392,-0.539 0.334,-0.539C0.275,-0.539 0.227,-0.518 0.188,-0.477C0.149,-0.435 0.129,-0.386 0.129,-0.33C0.129,-0.273 0.149,-0.224 0.189,-0.182C0.229,-0.14 0.277,-0.119 0.333,-0.119Z" style="fill:white;fill-rule:nonzero;"/>
        </g>
    </g>
    <path d="M604.5,24C604.5,11.03 593.97,0.5 581,0.5L24,0.5C11.03,0.5 0.5,11.03 0.5,24L0.5,111.939C0.5,124.909 11.03,135.439 24,135.439L581,135.439C593.97,135.439 604.5,124.909 604.5,111.939L604.5,24Z" style="fill:none;stroke:white;stroke-opacity:0.16;stroke-width:1px;"/>
    <defs>
        <linearGradient id="_Linear1" x1="0" y1="0" x2="1" y2="0" gradientUnits="userSpaceOnUse" gradientTransform="matrix(8.32386e-15,135.939,-135.939,8.32386e-15,302.5,0)"><stop offset="0" style="stop-color:rgb(52,52,52);stop-opacity:1"/><stop offset="1" style="stop-color:rgb(17,19,8);stop-opacity:1"/></linearGradient>
    </defs>
</svg>
