<?xml version="1.0" encoding="UTF-8" standalone="no"?>
<!DOCTYPE svg PUBLIC "-//W3C//DTD SVG 1.1//EN" "http://www.w3.org/Graphics/SVG/1.1/DTD/svg11.dtd">
<svg width="100%" height="100%" viewBox="0 0 605 136" version="1.1" xmlns="http://www.w3.org/2000/svg" xmlns:xlink="http://www.w3.org/1999/xlink" xml:space="preserve" xmlns:serif="http://www.serif.com/" style="fill-rule:evenodd;clip-rule:evenodd;">
    <path d="M605,24C605,10.754 594.246,0 581,0L24,0C10.754,0 0,10.754 0,24L0,111.939C0,125.185 10.754,135.939 24,135.939L581,135.939C594.246,135.939 605,125.185 605,111.939L605,24Z" style="fill:url(#_Linear1);"/>
    <path d="M103.935,53.581C103.935,41.672 94.267,32.004 82.359,32.004L53.581,32.004C41.672,32.004 32.004,41.672 32.004,53.581L32.004,82.359C32.004,94.267 41.672,103.935 53.581,103.935L82.359,103.935C94.267,103.935 103.935,94.267 103.935,82.359L103.935,53.581Z" style="fill:rgb(161,187,42);"/>
    <path d="M80.449,57.071L84.263,60.886L64.373,80.776L53.474,69.877L57.289,66.062L63.102,71.875C63.804,72.577 64.942,72.577 65.645,71.875L80.449,57.071Z" style="fill:rgb(11,13,1);"/>
    <g transform="matrix(1,0,0,1,-17.6528,36.4385)">
        <g transform="matrix(40,0,0,40,146.325,46.3718)">
            <path d="M0.832,-0.418C0.83,-0.299 0.796,-0.207 0.729,-0.141C0.662,-0.075 0.573,-0.042 0.464,-0.042C0.339,-0.042 0.239,-0.081 0.164,-0.158C0.089,-0.235 0.052,-0.325 0.052,-0.428C0.052,-0.531 0.089,-0.621 0.164,-0.697C0.239,-0.772 0.335,-0.81 0.453,-0.81C0.517,-0.81 0.577,-0.798 0.632,-0.775C0.687,-0.751 0.74,-0.715 0.793,-0.666L0.727,-0.603C0.686,-0.642 0.642,-0.673 0.595,-0.694C0.548,-0.715 0.499,-0.725 0.449,-0.725C0.399,-0.725 0.349,-0.712 0.3,-0.685C0.251,-0.658 0.212,-0.622 0.184,-0.577C0.156,-0.532 0.142,-0.483 0.142,-0.43C0.142,-0.348 0.173,-0.277 0.235,-0.216C0.296,-0.155 0.373,-0.124 0.466,-0.124C0.535,-0.124 0.594,-0.143 0.644,-0.181C0.694,-0.218 0.725,-0.27 0.736,-0.335L0.508,-0.335L0.508,-0.418L0.832,-0.418Z" style="fill:white;fill-rule:nonzero;"/>
        </g>
        <g transform="matrix(40,0,0,40,181.205,46.3718)">
            <path d="M0.606,-0.318L0.128,-0.318C0.131,-0.258 0.152,-0.21 0.189,-0.174C0.226,-0.137 0.27,-0.119 0.321,-0.119C0.408,-0.119 0.475,-0.162 0.521,-0.248L0.591,-0.212C0.56,-0.154 0.523,-0.111 0.48,-0.084C0.437,-0.056 0.386,-0.042 0.327,-0.042C0.245,-0.042 0.177,-0.07 0.124,-0.127C0.071,-0.183 0.044,-0.251 0.044,-0.33C0.044,-0.409 0.071,-0.477 0.125,-0.534C0.178,-0.591 0.245,-0.619 0.324,-0.619C0.403,-0.619 0.47,-0.592 0.523,-0.539C0.576,-0.485 0.604,-0.411 0.606,-0.318ZM0.514,-0.391C0.504,-0.438 0.481,-0.474 0.446,-0.5C0.411,-0.526 0.37,-0.539 0.324,-0.539C0.231,-0.539 0.169,-0.49 0.138,-0.391L0.514,-0.391Z" style="fill:white;fill-rule:nonzero;"/>
        </g>
        <g transform="matrix(40,0,0,40,207.205,46.3718)">
            <path d="M0.353,-0.541L0.3,-0.486C0.261,-0.523 0.225,-0.541 0.192,-0.541C0.171,-0.541 0.154,-0.535 0.14,-0.522C0.126,-0.509 0.119,-0.493 0.119,-0.474C0.119,-0.455 0.127,-0.438 0.143,-0.424C0.158,-0.409 0.186,-0.392 0.226,-0.371C0.266,-0.349 0.297,-0.326 0.319,-0.301C0.34,-0.276 0.351,-0.245 0.351,-0.208C0.351,-0.161 0.335,-0.122 0.303,-0.09C0.27,-0.058 0.23,-0.042 0.183,-0.042C0.117,-0.042 0.062,-0.07 0.018,-0.126L0.07,-0.184C0.106,-0.142 0.143,-0.121 0.18,-0.121C0.205,-0.121 0.227,-0.129 0.245,-0.146C0.263,-0.163 0.272,-0.182 0.272,-0.205C0.272,-0.227 0.264,-0.246 0.248,-0.261C0.231,-0.276 0.203,-0.293 0.164,-0.313C0.124,-0.333 0.094,-0.355 0.074,-0.38C0.053,-0.404 0.043,-0.436 0.043,-0.476C0.043,-0.515 0.058,-0.549 0.087,-0.577C0.116,-0.605 0.154,-0.619 0.202,-0.619C0.249,-0.619 0.3,-0.593 0.353,-0.541Z" style="fill:white;fill-rule:nonzero;"/>
        </g>
        <g transform="matrix(40,0,0,40,222.725,46.3718)">
            <path d="M0.32,-0.533L0.212,-0.533L0.212,-0.151C0.212,-0.137 0.214,-0.129 0.218,-0.126C0.222,-0.123 0.232,-0.121 0.248,-0.121L0.296,-0.121L0.296,-0.05C0.264,-0.045 0.24,-0.042 0.223,-0.042C0.191,-0.042 0.167,-0.05 0.152,-0.066C0.137,-0.081 0.129,-0.106 0.129,-0.14L0.129,-0.533L0.035,-0.533L0.035,-0.605L0.129,-0.605L0.129,-0.81L0.212,-0.81L0.212,-0.605L0.32,-0.605L0.32,-0.533Z" style="fill:white;fill-rule:nonzero;"/>
        </g>
        <g transform="matrix(40,0,0,40,236.285,46.3718)">
            <path d="M0.1,-0.81C0.118,-0.81 0.133,-0.804 0.146,-0.792C0.158,-0.779 0.164,-0.764 0.164,-0.747C0.164,-0.729 0.158,-0.714 0.146,-0.702C0.133,-0.689 0.118,-0.683 0.101,-0.683C0.083,-0.683 0.068,-0.689 0.056,-0.702C0.043,-0.715 0.037,-0.729 0.037,-0.747C0.037,-0.764 0.043,-0.778 0.056,-0.791C0.068,-0.804 0.083,-0.81 0.1,-0.81ZM0.142,-0.06L0.059,-0.06L0.059,-0.605L0.142,-0.605L0.142,-0.06Z" style="fill:white;fill-rule:nonzero;"/>
        </g>
        <g transform="matrix(40,0,0,40,244.285,46.3718)">
            <path d="M0.353,-0.801L0.477,-0.801L0.315,-0.667L0.228,-0.667L0.353,-0.801ZM0.328,-0.619C0.407,-0.619 0.474,-0.591 0.529,-0.534C0.584,-0.477 0.611,-0.409 0.611,-0.33C0.611,-0.251 0.584,-0.183 0.53,-0.127C0.475,-0.07 0.408,-0.042 0.328,-0.042C0.248,-0.042 0.181,-0.07 0.126,-0.127C0.071,-0.183 0.044,-0.251 0.044,-0.33C0.044,-0.409 0.071,-0.477 0.127,-0.534C0.182,-0.591 0.249,-0.619 0.328,-0.619ZM0.328,-0.121C0.383,-0.121 0.431,-0.141 0.47,-0.182C0.509,-0.222 0.528,-0.271 0.528,-0.328C0.528,-0.385 0.508,-0.434 0.469,-0.476C0.429,-0.517 0.382,-0.538 0.328,-0.538C0.273,-0.538 0.226,-0.517 0.187,-0.476C0.148,-0.434 0.128,-0.384 0.128,-0.327C0.128,-0.27 0.147,-0.221 0.185,-0.181C0.223,-0.141 0.271,-0.121 0.328,-0.121Z" style="fill:white;fill-rule:nonzero;"/>
        </g>
        <g transform="matrix(40,0,0,40,270.485,46.3718)">
            <path d="M0.547,-0.06L0.465,-0.06L0.465,-0.32C0.465,-0.38 0.462,-0.421 0.457,-0.443C0.451,-0.464 0.443,-0.483 0.432,-0.498C0.421,-0.513 0.407,-0.524 0.39,-0.531C0.373,-0.538 0.352,-0.542 0.328,-0.542C0.303,-0.542 0.279,-0.536 0.256,-0.524C0.233,-0.512 0.213,-0.495 0.196,-0.474C0.179,-0.453 0.168,-0.43 0.162,-0.406C0.155,-0.382 0.152,-0.334 0.152,-0.262L0.152,-0.06L0.069,-0.06L0.069,-0.605L0.152,-0.605L0.152,-0.523C0.206,-0.587 0.27,-0.619 0.344,-0.619C0.383,-0.619 0.419,-0.609 0.451,-0.589C0.483,-0.568 0.507,-0.54 0.523,-0.505C0.539,-0.469 0.547,-0.414 0.547,-0.34L0.547,-0.06Z" style="fill:white;fill-rule:nonzero;"/>
        </g>
        <g transform="matrix(40,0,0,40,304.885,46.3718)">
            <path d="M0.613,-0.06L0.532,-0.06L0.532,-0.14C0.473,-0.075 0.404,-0.042 0.327,-0.042C0.249,-0.042 0.183,-0.07 0.128,-0.127C0.073,-0.184 0.046,-0.252 0.046,-0.331C0.046,-0.41 0.074,-0.478 0.129,-0.535C0.184,-0.591 0.252,-0.619 0.332,-0.619C0.411,-0.619 0.478,-0.587 0.532,-0.522L0.532,-0.81L0.613,-0.81L0.613,-0.06ZM0.333,-0.119C0.386,-0.119 0.433,-0.139 0.474,-0.178C0.515,-0.217 0.536,-0.267 0.536,-0.328C0.536,-0.388 0.517,-0.438 0.479,-0.479C0.44,-0.519 0.392,-0.539 0.334,-0.539C0.275,-0.539 0.227,-0.518 0.188,-0.477C0.149,-0.435 0.129,-0.386 0.129,-0.33C0.129,-0.273 0.149,-0.224 0.189,-0.182C0.229,-0.14 0.277,-0.119 0.333,-0.119Z" style="fill:white;fill-rule:nonzero;"/>
        </g>
        <g transform="matrix(40,0,0,40,332.285,46.3718)">
            <path d="M0.606,-0.318L0.128,-0.318C0.131,-0.258 0.152,-0.21 0.189,-0.174C0.226,-0.137 0.27,-0.119 0.321,-0.119C0.408,-0.119 0.475,-0.162 0.521,-0.248L0.591,-0.212C0.56,-0.154 0.523,-0.111 0.48,-0.084C0.437,-0.056 0.386,-0.042 0.327,-0.042C0.245,-0.042 0.177,-0.07 0.124,-0.127C0.071,-0.183 0.044,-0.251 0.044,-0.33C0.044,-0.409 0.071,-0.477 0.125,-0.534C0.178,-0.591 0.245,-0.619 0.324,-0.619C0.403,-0.619 0.47,-0.592 0.523,-0.539C0.576,-0.485 0.604,-0.411 0.606,-0.318ZM0.514,-0.391C0.504,-0.438 0.481,-0.474 0.446,-0.5C0.411,-0.526 0.37,-0.539 0.324,-0.539C0.231,-0.539 0.169,-0.49 0.138,-0.391L0.514,-0.391Z" style="fill:white;fill-rule:nonzero;"/>
        </g>
        <g transform="matrix(40,0,0,40,368.285,46.3718)">
            <path d="M0.152,-0.522C0.206,-0.587 0.273,-0.619 0.352,-0.619C0.431,-0.619 0.499,-0.591 0.554,-0.535C0.609,-0.478 0.637,-0.41 0.637,-0.331C0.637,-0.252 0.61,-0.184 0.555,-0.127C0.5,-0.07 0.434,-0.042 0.357,-0.042C0.28,-0.042 0.211,-0.075 0.152,-0.14L0.152,0.133L0.07,0.133L0.07,-0.605L0.152,-0.605L0.152,-0.522ZM0.352,-0.119C0.407,-0.119 0.454,-0.139 0.495,-0.181C0.535,-0.222 0.555,-0.271 0.555,-0.329C0.555,-0.387 0.535,-0.437 0.496,-0.478C0.456,-0.519 0.407,-0.539 0.35,-0.539C0.293,-0.539 0.245,-0.519 0.206,-0.479C0.167,-0.438 0.147,-0.388 0.147,-0.329C0.147,-0.27 0.167,-0.22 0.207,-0.18C0.247,-0.139 0.295,-0.119 0.352,-0.119Z" style="fill:white;fill-rule:nonzero;"/>
        </g>
        <g transform="matrix(40,0,0,40,395.565,46.3718)">
            <path d="M0.299,-0.597L0.256,-0.527C0.245,-0.533 0.234,-0.536 0.223,-0.536C0.202,-0.536 0.184,-0.526 0.167,-0.506C0.15,-0.485 0.138,-0.459 0.13,-0.426C0.121,-0.393 0.117,-0.333 0.117,-0.247L0.117,-0.06L0.033,-0.06L0.033,-0.605L0.117,-0.605L0.117,-0.546C0.134,-0.571 0.151,-0.589 0.168,-0.601C0.185,-0.613 0.204,-0.619 0.226,-0.619C0.247,-0.619 0.272,-0.612 0.299,-0.597Z" style="fill:white;fill-rule:nonzero;"/>
        </g>
        <g transform="matrix(40,0,0,40,407.605,46.3718)">
            <path d="M0.328,-0.619C0.407,-0.619 0.474,-0.591 0.529,-0.534C0.584,-0.477 0.611,-0.409 0.611,-0.33C0.611,-0.251 0.584,-0.183 0.53,-0.127C0.475,-0.07 0.408,-0.042 0.328,-0.042C0.248,-0.042 0.181,-0.07 0.126,-0.127C0.071,-0.183 0.044,-0.251 0.044,-0.33C0.044,-0.409 0.071,-0.477 0.127,-0.534C0.182,-0.591 0.249,-0.619 0.328,-0.619ZM0.328,-0.121C0.383,-0.121 0.431,-0.141 0.47,-0.182C0.509,-0.222 0.528,-0.271 0.528,-0.328C0.528,-0.385 0.508,-0.434 0.469,-0.476C0.429,-0.517 0.382,-0.538 0.328,-0.538C0.273,-0.538 0.226,-0.517 0.187,-0.476C0.148,-0.434 0.128,-0.384 0.128,-0.327C0.128,-0.27 0.147,-0.221 0.185,-0.181C0.223,-0.141 0.271,-0.121 0.328,-0.121Z" style="fill:white;fill-rule:nonzero;"/>
        </g>
        <g transform="matrix(40,0,0,40,433.805,46.3718)">
            <path d="M0.534,-0.605L0.211,0.133L0.125,0.133L0.23,-0.107L0.009,-0.605L0.095,-0.605L0.274,-0.206L0.447,-0.605L0.534,-0.605Z" style="fill:white;fill-rule:nonzero;"/>
        </g>
        <g transform="matrix(40,0,0,40,455.245,46.3718)">
            <path d="M0.606,-0.318L0.128,-0.318C0.131,-0.258 0.152,-0.21 0.189,-0.174C0.226,-0.137 0.27,-0.119 0.321,-0.119C0.408,-0.119 0.475,-0.162 0.521,-0.248L0.591,-0.212C0.56,-0.154 0.523,-0.111 0.48,-0.084C0.437,-0.056 0.386,-0.042 0.327,-0.042C0.245,-0.042 0.177,-0.07 0.124,-0.127C0.071,-0.183 0.044,-0.251 0.044,-0.33C0.044,-0.409 0.071,-0.477 0.125,-0.534C0.178,-0.591 0.245,-0.619 0.324,-0.619C0.403,-0.619 0.47,-0.592 0.523,-0.539C0.576,-0.485 0.604,-0.411 0.606,-0.318ZM0.514,-0.391C0.504,-0.438 0.481,-0.474 0.446,-0.5C0.411,-0.526 0.37,-0.539 0.324,-0.539C0.231,-0.539 0.169,-0.49 0.138,-0.391L0.514,-0.391Z" style="fill:white;fill-rule:nonzero;"/>
        </g>
        <g transform="matrix(40,0,0,40,481.245,46.3718)">
            <path d="M0.602,-0.171C0.573,-0.129 0.536,-0.097 0.49,-0.075C0.443,-0.053 0.393,-0.042 0.339,-0.042C0.255,-0.042 0.185,-0.07 0.129,-0.125C0.072,-0.18 0.044,-0.248 0.044,-0.328C0.044,-0.408 0.072,-0.476 0.129,-0.534C0.186,-0.591 0.259,-0.619 0.349,-0.619C0.402,-0.619 0.452,-0.607 0.497,-0.584C0.542,-0.561 0.577,-0.528 0.602,-0.486L0.537,-0.445C0.488,-0.508 0.425,-0.54 0.346,-0.54C0.284,-0.54 0.232,-0.52 0.19,-0.481C0.148,-0.441 0.127,-0.392 0.127,-0.333C0.127,-0.274 0.148,-0.224 0.189,-0.182C0.23,-0.14 0.283,-0.119 0.346,-0.119C0.422,-0.119 0.486,-0.151 0.538,-0.215L0.602,-0.171Z" style="fill:white;fill-rule:nonzero;"/>
        </g>
        <g transform="matrix(40,0,0,40,507.125,46.3718)">
            <path d="M0.32,-0.533L0.212,-0.533L0.212,-0.151C0.212,-0.137 0.214,-0.129 0.218,-0.126C0.222,-0.123 0.232,-0.121 0.248,-0.121L0.296,-0.121L0.296,-0.05C0.264,-0.045 0.24,-0.042 0.223,-0.042C0.191,-0.042 0.167,-0.05 0.152,-0.066C0.137,-0.081 0.129,-0.106 0.129,-0.14L0.129,-0.533L0.035,-0.533L0.035,-0.605L0.129,-0.605L0.129,-0.81L0.212,-0.81L0.212,-0.605L0.32,-0.605L0.32,-0.533Z" style="fill:white;fill-rule:nonzero;"/>
        </g>
        <g transform="matrix(40,0,0,40,520.685,46.3718)">
            <path d="M0.328,-0.619C0.407,-0.619 0.474,-0.591 0.529,-0.534C0.584,-0.477 0.611,-0.409 0.611,-0.33C0.611,-0.251 0.584,-0.183 0.53,-0.127C0.475,-0.07 0.408,-0.042 0.328,-0.042C0.248,-0.042 0.181,-0.07 0.126,-0.127C0.071,-0.183 0.044,-0.251 0.044,-0.33C0.044,-0.409 0.071,-0.477 0.127,-0.534C0.182,-0.591 0.249,-0.619 0.328,-0.619ZM0.328,-0.121C0.383,-0.121 0.431,-0.141 0.47,-0.182C0.509,-0.222 0.528,-0.271 0.528,-0.328C0.528,-0.385 0.508,-0.434 0.469,-0.476C0.429,-0.517 0.382,-0.538 0.328,-0.538C0.273,-0.538 0.226,-0.517 0.187,-0.476C0.148,-0.434 0.128,-0.384 0.128,-0.327C0.128,-0.27 0.147,-0.221 0.185,-0.181C0.223,-0.141 0.271,-0.121 0.328,-0.121Z" style="fill:white;fill-rule:nonzero;"/>
        </g>
        <g transform="matrix(40,0,0,40,546.885,46.3718)">
            <path d="M0.353,-0.541L0.3,-0.486C0.261,-0.523 0.225,-0.541 0.192,-0.541C0.171,-0.541 0.154,-0.535 0.14,-0.522C0.126,-0.509 0.119,-0.493 0.119,-0.474C0.119,-0.455 0.127,-0.438 0.143,-0.424C0.158,-0.409 0.186,-0.392 0.226,-0.371C0.266,-0.349 0.297,-0.326 0.319,-0.301C0.34,-0.276 0.351,-0.245 0.351,-0.208C0.351,-0.161 0.335,-0.122 0.303,-0.09C0.27,-0.058 0.23,-0.042 0.183,-0.042C0.117,-0.042 0.062,-0.07 0.018,-0.126L0.07,-0.184C0.106,-0.142 0.143,-0.121 0.18,-0.121C0.205,-0.121 0.227,-0.129 0.245,-0.146C0.263,-0.163 0.272,-0.182 0.272,-0.205C0.272,-0.227 0.264,-0.246 0.248,-0.261C0.231,-0.276 0.203,-0.293 0.164,-0.313C0.124,-0.333 0.094,-0.355 0.074,-0.38C0.053,-0.404 0.043,-0.436 0.043,-0.476C0.043,-0.515 0.058,-0.549 0.087,-0.577C0.116,-0.605 0.154,-0.619 0.202,-0.619C0.249,-0.619 0.3,-0.593 0.353,-0.541Z" style="fill:white;fill-rule:nonzero;"/>
        </g>
    </g>
    <path d="M604.5,24C604.5,11.03 593.97,0.5 581,0.5L24,0.5C11.03,0.5 0.5,11.03 0.5,24L0.5,111.939C0.5,124.909 11.03,135.439 24,135.439L581,135.439C593.97,135.439 604.5,124.909 604.5,111.939L604.5,24Z" style="fill:none;stroke:white;stroke-opacity:0.16;stroke-width:1px;"/>
    <defs>
        <linearGradient id="_Linear1" x1="0" y1="0" x2="1" y2="0" gradientUnits="userSpaceOnUse" gradientTransform="matrix(8.32386e-15,135.939,-135.939,8.32386e-15,302.5,0)"><stop offset="0" style="stop-color:rgb(52,52,52);stop-opacity:1"/><stop offset="1" style="stop-color:rgb(17,19,8);stop-opacity:1"/></linearGradient>
    </defs>
</svg>
